<?xml version="1.0" encoding="UTF-8"?><svg id="Capa_2" xmlns="http://www.w3.org/2000/svg" viewBox="0 0 434.14 484.72"><defs><style>.cls-1,.cls-2{fill:#5a09ce;}.cls-3,.cls-4{stroke-width:1px;}.cls-3,.cls-4,.cls-5,.cls-6,.cls-7,.cls-8,.cls-9,.cls-10,.cls-11,.cls-12,.cls-13,.cls-14,.cls-15,.cls-16,.cls-17,.cls-18,.cls-19,.cls-20,.cls-2,.cls-21{stroke-miterlimit:10;}.cls-3,.cls-6,.cls-22,.cls-13,.cls-15{fill:#37bbd8;}.cls-3,.cls-13{stroke:#37bbd8;}.cls-4,.cls-21{fill:#e07118;stroke:#e07118;}.cls-23{stroke:#0c0e0e;stroke-linecap:round;stroke-linejoin:round;stroke-width:9.68px;}.cls-23,.cls-5,.cls-10,.cls-11{fill:none;}.cls-5,.cls-11{stroke:#0c0a0c;}.cls-5,.cls-14,.cls-19{stroke-width:.96px;}.cls-6{stroke-width:1.32px;}.cls-6,.cls-15{stroke:#ff9d5a;}.cls-24{fill:#71bc06;}.cls-25{fill:#ebcee4;}.cls-7{fill:#c5f7ff;stroke:#c5f7ff;stroke-width:1.11px;}.cls-26{fill:#6d0982;}.cls-8{fill:#5d0e6b;stroke:#5d0e6b;stroke-width:1.35px;}.cls-9{fill:#050606;stroke:#050606;stroke-width:1.35px;}.cls-10{stroke:#000;stroke-width:1.6px;}.cls-27{fill:#520266;}.cls-28{fill:#550568;}.cls-29{fill:#7e31d6;}.cls-11{stroke-width:.86px;}.cls-30{fill:#050505;}.cls-12{fill:#9c48fd;}.cls-12,.cls-2{stroke:#5a09ce;stroke-width:1.11px;}.cls-13{stroke-width:1.03px;}.cls-14,.cls-16,.cls-17{stroke:#550568;}.cls-14,.cls-17{fill:#8d0bad;}.cls-31{fill:#a2c62c;}.cls-15{stroke-width:1.21px;}.cls-16{fill:#82378c;stroke-width:.89px;}.cls-32{fill:#ad50ff;}.cls-33{fill:#d320f2;}.cls-17{stroke-width:.82px;}.cls-18{fill:#fdf8f8;stroke:#fdf8f8;stroke-width:5.14px;}.cls-19{fill:#b1c923;stroke:#a2c62c;}.cls-20{fill:#ed7faf;stroke:#ed7faf;stroke-width:4.61px;}.cls-21{stroke-width:1.03px;}</style></defs><g id="__persoaje_uvalin"><g><path class="cls-16" d="M344.24,451.12c-1.1,2.5-4.16,3.7-6.82,2.68-6.79-2.6-20.17-10.86-25.73-36.31-7.61-34.82-5.42-30.3-5.42-30.3,0,0,29.04-10.29,32.82,2.97,3.39,11.87,11.17,47.29,5.15,60.96Z"/><ellipse class="cls-8" cx="308.84" cy="403.61" rx="7.85" ry="16.92" transform="translate(-108.83 114.06) rotate(-17.85)"/><path class="cls-31" d="M202.86,42.82c-4.99,.1-8.98-4.53-9.18-9.55-.15-1.13-.05-2.51,0-3.65,.24-3.14,.32-6.44-.24-9.4-.34-1.97-1.18-4.86-2.81-5.65-.5-.27-1.13-.15-2.32,.4-.92,.4-1.76,1.08-2.24,1.89-.22,.33-.23,.71-.25,.63-.12-.27-.5-.57-.87-.53-.15-.02-.35,.04-.32,.03-.02,0-.07,.04-.02,.02,.83-.29,2.06-1.4,2.78-2.13,2.78-2.87,5.13-6.74,4.42-10.88-.24-1.37-.83-2.73-1.66-3.99,7.26,5.43,2.8,16.99-3.96,20.87-1.32,.69-3.23,.14-4.05-1.12-2.15-3.63,1.14-7.54,4.08-8.96,6.85-3.59,11.07,2.54,11.66,8.78,.57,4.37-.23,8.47-1.03,12.63-.72,4.58,1.23,8.94,6.01,10.62h0Z"/><path class="cls-31" d="M239.41,26.68c4.57-2.01,10.03,.74,12.15,5.28,.57,.99,1.02,2.3,1.4,3.37,.99,2.99,2.18,6.07,3.83,8.59,1.07,1.69,2.96,4.04,4.77,4.14,.56,.06,1.1-.29,1.99-1.26,.69-.73,1.21-1.68,1.34-2.6,.07-.39-.06-.74,0-.68,.21,.2,.68,.34,1.01,.16,.15-.04,.3-.17,.28-.15,.02-.01,.05-.06,.01-.02-.65,.58-1.36,2.08-1.75,3.04-1.47,3.72-2.15,8.19,.1,11.74,.75,1.17,1.81,2.2,3.06,3.05-8.79-2.22-9.12-14.61-4.36-20.79,.96-1.14,2.93-1.37,4.17-.52,3.38,2.52,1.85,7.4-.32,9.84-4.95,5.94-11.2,1.91-14.14-3.63-2.21-3.81-3.04-7.91-3.91-12.05-1.09-4.5-4.57-7.78-9.63-7.5h0Z"/><path class="cls-31" d="M344.98,85.2c-3.6-4.55-1.82-10.43,2.54-14,4.11-3.08,8.92-6.06,11.23-10.68,.52-1.05,.67-2.06,.49-2.61-.24-1.22-3.25-2.4-4.64-2.1-.39,.04-.7,.27-.65,.2-.02,0,.07-.1,.06-.19,.15-.35-.16-.9-.41-1.05,3.17,1.35,7.98,1.21,11.34-.23,2.63-1.09,4.48-3.39,5.33-6.17,.35,9.06-11.44,12.87-18.71,10.05-1.37-.6-2.14-2.42-1.68-3.86,1.46-3.95,6.58-3.86,9.53-2.47,7.1,3.07,4.99,10.2,.51,14.59-3.03,3.19-6.73,5.15-10.46,7.15-4.01,2.32-6.18,6.58-4.47,11.36h0Z"/><path class="cls-15" d="M171.52,180.45s-9.6,15.85-7.11,29.35c0,0-12.73-7.08-17.76-3.31,0,0,4.37-31.17,11.99-38.16s0,0,0,0c0,0,3.87,7.39,12.88,12.12"/><g><path class="cls-17" d="M419.84,270.97s-.38-13.92-14.53-6.46,1.55,9.77,1.55,9.77l6.91,4.5,6.07-7.81Z"/><path class="cls-17" d="M395.48,269.09c3.04-2.68,3.77,5.51,11.41,8.02,5.41,1.78,1.18-7.2-1.76-12.59-1.9-3.5-5.32-6.01-9.28-6.45-12.49-1.37-15.41,18.07-15.41,18.07l2.65,4.15s-7.26-14.66-12.28-3.21c-5.02,11.44,22.33,32.66,25.54,32.38s2.51-8.1,1.4-12.28c0,0,2.3,17.11,24.95,3.18,22.04-13.56,6.59-31.79-7.64-16.85,0,0-8.92,13.92,10.47,4.48"/><path class="cls-17" d="M421.32,279.14c4.72-2.87,5.93-1.63,5.2-3.2-1.6-3.44-5.76-8.31-15.59-1.66-13.03,8.81,.07,11.12,10.38,4.86Z"/></g><path class="cls-32" d="M319.39,290.66c8.01,7.02,16.15,13.94,26.08,18.07,9.8,4.06,20.61,4.43,30.28-.16,5.06-2.4,9.24-6.18,12.56-10.65,1.59-2.14,.42-5.76-1.82-6.95-2.66-1.4-5.25-.46-6.95,1.82-.56,.75,0,.04,.08-.1-.12,.2-.35,.43-.5,.6-.29,.35-.6,.69-.91,1.02-.71,.76-1.46,1.48-2.25,2.15-.2,.17-.4,.33-.6,.5-.44,.38,.24-.17,.26-.19-.29,.36-.89,.65-1.27,.91-.86,.58-1.76,1.11-2.68,1.6-.46,.24-.93,.46-1.4,.69-.83,.4,.8-.29-.4,.17-.97,.37-1.96,.7-2.97,.96-.84,.22-1.99,.65-2.86,.6,.16,.01,1.21-.12,.14-.02-.22,.02-.44,.04-.66,.06-.65,.06-1.31,.09-1.97,.1-1.09,.02-2.19-.03-3.27-.12-.36-.03-1.63-.22-.6-.05-.65-.11-1.3-.21-1.94-.35-2.23-.46-4.42-1.13-6.54-1.96-.27-.11-.55-.22-.82-.33,.07,.03,.72,.33,.2,.08s-1.07-.49-1.6-.74c-1.06-.52-2.1-1.07-3.13-1.66-2.01-1.15-3.94-2.42-5.82-3.77-.49-.35-.97-.7-1.44-1.06-.24-.18-.48-.36-.71-.54,.57,.44,.09,.07-.21-.17-1-.79-1.98-1.59-2.96-2.4-2.07-1.73-4.1-3.5-6.12-5.28s-5.24-2.11-7.18,0c-1.76,1.92-2.13,5.31,0,7.18h0Z"/><path class="cls-16" d="M240.37,424s25.58-11.76,28.02,0c2.44,11.76,6.91,58.81-8.38,60.24-15.29,1.43-22.04-37.38-19.64-41.54,2.4-4.16,0-18.7,0-18.7Z"/><path class="cls-6" d="M340.72,220.81l-16.86,1.75s9.26-30.03-10.58-41.31l10.1-15.55s27.59,13.01,17.34,55.11Z"/><path class="cls-19" d="M250.79,180.67s-33.02-29.38-32.86-75.12c.16-45.75-17.89-6.54-17.89-6.54,0,0,24.49,51.24,17.89,81.66-6.6,30.43,32.86,0,32.86,0Z"/><ellipse class="cls-8" cx="239.71" cy="436.57" rx="6.36" ry="12.47" transform="translate(-74.45 50.1) rotate(-10.34)"/><path class="cls-19" d="M266.29,184.61s-18.67-41.6-11.22-56.49c7.44-14.88-6.47-2.93-6.47-2.93,0,0,5,41.18-2.32,54.08-7.32,12.9,20.01,5.34,20.01,5.34Z"/><path class="cls-19" d="M291.46,200.35s-5.04-11.63,0-20.33c5.04-8.7-11.47-4.15-11.47-4.15,0,0,3.5,9.03-8.78,11.22-12.28,2.2,20.25,13.26,20.25,13.26Z"/><path class="cls-32" d="M234.34,432.14c-.22,.19-.44,.37-.66,.55,.41-.31,.47-.35,.18-.14-.41,.29-.81,.59-1.23,.86-.72,.47-1.46,.9-2.23,1.28-.35,.18-1.18,.48-.35,.18-.49,.18-.98,.35-1.48,.49s-1.03,.25-1.54,.36c.89-.18-.06,0-.45,.03-.45,.02-.9,.03-1.35,0-.4-.02-1.32-.23-.44-.02-.45-.1-.89-.2-1.33-.33-.18-.05-.35-.11-.52-.17-.52-.2-.46-.17,.2,.1-.54,0-1.44-.77-1.9-1.07-.2-.14-.4-.28-.6-.42l.45,.34c-.32-.1-.72-.63-.96-.86-.27-.26-.52-.52-.77-.8-.19-.2-1.16-1.24-.27-.26-.49-.54-.87-1.23-1.25-1.86-.41-.7-.76-1.42-1.11-2.15-.13-.3-.1-.23,.1,.22-.11-.28-.21-.55-.31-.83-.15-.42-.29-.84-.41-1.26-.56-1.85-.91-3.74-1.23-5.64-.19-1.12,.09,.81-.06-.42-.05-.44-.11-.89-.16-1.33-.12-1.04-.22-2.07-.32-3.11-.26-2.64-2.15-5.21-5.08-5.08-2.53,.11-5.35,2.25-5.08,5.08,.88,9.04,2.17,19.12,9.58,25.38,3.76,3.18,8.49,5.13,13.49,4.62,5.51-.56,10.09-3.01,14.26-6.53,2.04-1.72,1.91-5.43,0-7.18-2.17-1.99-5.01-1.84-7.18,0h0Z"/><path class="cls-19" d="M324.48,178.89s-14.96,30.66-13.09,37.89-16.07-10.7-16.07-10.7c0,0,12.51-15.68,13.27-20.96,.76-5.27,15.89-14.79,15.89-14.79v8.56Z"/><path class="cls-32" d="M143.58,252.29c-.94,1-1.93,1.96-2.97,2.87-.46,.4-.93,.86-1.44,1.19,1.09-.71,.04-.04-.16,.1-.4,.29-.81,.58-1.22,.85-2.19,1.48-4.68,3.05-7.19,3.91,1.08-.37,.42-.17,.18-.08-.35,.13-.7,.28-1.05,.41-.59,.22-1.18,.43-1.77,.63-1.43,.48-2.89,.89-4.35,1.25-1.35,.33-2.72,.6-4.09,.83-.39,.06-2.3,.47-.91,.15-.72,.17-1.54,.18-2.28,.24-2.79,.25-5.6,.3-8.39,.18-1.39-.06-2.78-.16-4.17-.31-.38-.04-.75-.09-1.13-.13-.2-.02-1-.15-.02,0-.98-.15-1.97-.3-2.95-.48-6.71-1.21-13.24-3.23-19.6-5.65-1.73-.66-3.44-1.35-5.14-2.05-1.41-.58,.92,.4-.49-.21-.5-.21-.99-.43-1.49-.64-.92-.4-1.84-.8-2.75-1.21-3.51-1.57-7-3.2-10.49-4.84-2.4-1.13-5.59-.75-6.95,1.82-1.19,2.25-.75,5.75,1.82,6.95,13.13,6.16,26.49,12.48,40.81,15.33,12.45,2.48,25.8,2.38,37.74-2.33,6.63-2.62,12.72-6.37,17.63-11.59,1.82-1.94,2.07-5.29,0-7.18s-5.24-2.07-7.18,0h0Z"/><path class="cls-20" d="M268.36,353.99s-2.92,62.59-41.96,63.27c-39.04,.68-52.75-7.19-50.84-26.02,1.91-18.83,5.91-45.2,11.28-48.2,0,0,33.6,25.75,81.51,10.95Z"/><path class="cls-25" d="M254.66,354.56s-4.74,29.35-10.88,28.81c-6.14-.54-12.9-6.43-17.42-26.91-4.51-20.47,26.88-.49,28.29-1.9Z"/><path class="cls-30" d="M214.68,367.26c-2.01,4.39-4.98,10.7-7.01,15.16-2.16,5.08-4.81,10.09-5.68,15.59,.13-5.62,2.66-10.89,4.81-15.98,2.34-5.07,4.92-10.03,7.88-14.76h0Z"/><circle class="cls-12" cx="247.25" cy="94.57" r="36.97"/><circle class="cls-12" cx="197.52" cy="78.11" r="44.83"/><circle class="cls-12" cx="335.02" cy="124.62" r="54.66"/><circle class="cls-12" cx="245.91" cy="138.45" r="25.54"/><circle class="cls-12" cx="187.16" cy="152.96" r="36.31"/><path class="cls-25" d="M300.15,335.53c.45,7.19,.76,19.92-1.79,27.51-1.18,3.53-5.78,4.36-8.07,1.43-5.02-6.43-13.72-17.99-15.1-22.72-1.39-4.78,11.63-8.63,19.24-10.45,2.8-.67,5.53,1.34,5.71,4.22Z"/><path class="cls-25" d="M207.5,354.19c0,.69-.15,1.37-.44,2.02-2.09,4.59-10.68,20.89-13.64,20.81-5.77-.17-7.39-16.41-10.03-25.65-.92-3.23-.86-15.67,3.23-16.4l11.61,7.6c4.75-.85,9.28,2,9.28,5.85v5.77Z"/><path class="cls-25" d="M175.31,336.65s-13.35,19.99-19.56,17.98c-9.21-2.99,1.93-38.73,1.93-38.73l13.93,.96,3.7,19.78Z"/><polyline class="cls-11" points="20.33 257.46 20.27 257.41 20.2 257.35"/><polyline class="cls-11" points="20.35 257.48 20.33 257.46 20.27 257.41 20.2 257.35"/><path class="cls-5" d="M48.99,239.19c.11,.22,.21,.43,.3,.65"/><g><g><path class="cls-14" d="M33.84,244.69s0,4.22,5.53,8.99c3.27,2.82,7.14,2.75,10.46,2.33,2.45-.31,4.84-.91,7.17-1.71,.57-.2,1.21-.39,1.94-.59,12.39-3.26,7.54-13.23,7.54-13.23-2.48,.77-6.11,1.63-9.61,1.95l-.65,.13s-.4,.27-1.1,.68c-2.18,1.27-7.37,3.88-12.96,3.88-2.78,0-5.66-.65-8.32-2.43Z"/><path class="cls-14" d="M1.52,230.49c3.5,5.79,10.94,7.11,16.99,7.11,5.03,0,9.1-.92,9.1-.92,1.78,4.08,3.92,6.83,6.24,8.58,2.66,2.03,5.53,2.76,8.32,2.76,5.59,0,10.77-2.97,12.96-4.42,.7-.47,1.1-.77,1.1-.77l.65-.15,9.61-2.22c1.33-.47,2.32-.91,2.79-1.21,1.65-1.07,6.84-1.17,10.38-1.09,2.39,.04,4.28-2.07,3.87-4.42-.49-2.79-2.69-5.71-10.05-5.1-13.49,1.1-20.82-14.67-23.85-23.01-2.67-7.36-3.94-18.06-11.86-16.69-2.34,.4-3.77,2.49-4.74,4.65-2.16,4.81,2.9,14.82,5.88,21.12,3.98,8.4,3.17,7.6,3.17,7.6l-3.17-7.6c-1.38,0-8.7-6.48-12.77-10.18-2.36-2.15-5.46-3.4-8.65-3.3-12.31,.4,1.87,19.49,4.76,20.41,.94,.29,2.45,1.21,4.11,2.36,3.63,2.49,7.99,6.09,8.86,6.8l-8.86-6.8c-6.12,.67-31.24-4.12-24.82,6.49Z"/></g><path class="cls-14" d="M46.78,234.03c-2.41,7.93,3.63,9.33,10.09,8.66"/></g><path class="cls-32" d="M266.12,351.35c-1.3,12.76-.6,25.66,1.87,38.24,1.15,5.84,2.48,11.91,5.03,17.32s7.73,9.34,14,9.81c7.68,.57,14.03-4.14,19.58-8.81,2.04-1.72,1.9-5.44,0-7.18-2.17-1.99-5.01-1.83-7.18,0-.5,.42-.99,.84-1.49,1.25-.28,.23-.56,.45-.84,.68-.15,.12-.77,.58,0,0-1.05,.78-2.12,1.54-3.26,2.19-.58,.33-1.18,.61-1.77,.91-.75,.38,1.11-.33-.15,.04-.27,.08-.53,.18-.8,.26-.54,.17-1.09,.28-1.64,.41-.96,.23-.08,.05,.09,.01-.4,.09-.86,.08-1.26,.09-.35,0-.7,0-1.05-.02-.18-.01-1.05-.15-.36-.02,.81,.15-.52-.14-.55-.15-.27-.07-.53-.16-.79-.24-.78-.24,.12-.15,.15,.07,0-.03-.55-.28-.64-.33-.2-.12-.4-.26-.6-.37-.92-.53,.62,.64-.07-.05-.37-.37-.74-.7-1.08-1.1-.57-.66-.33,.01,.05,.09-.06-.01-.39-.57-.39-.57-.46-.71-1.35-1.9-1.46-2.75,.12,1.01,.23,.54,.05,.09-.08-.22-.16-.43-.24-.65-.17-.48-.33-.97-.49-1.46-.4-1.28-.76-2.57-1.11-3.87-.74-2.77-1.39-5.56-1.94-8.37-.28-1.4-.53-2.81-.75-4.22-.1-.63-.2-1.25-.29-1.88-.05-.31-.09-.63-.13-.94,.15,1.07-.04-.31-.06-.54-.35-2.83-.6-5.67-.75-8.52-.35-6.48-.18-12.98,.48-19.44,.27-2.65-2.53-5.19-5.08-5.08-2.98,.13-4.79,2.24-5.08,5.08h0Z"/><ellipse class="cls-7" cx="359.36" cy="107.21" rx="15.47" ry="18.42"/><ellipse class="cls-7" cx="334.53" cy="102.73" rx="11.85" ry="15.18"/><circle class="cls-7" cx="266.24" cy="87.46" r="9.35"/><ellipse class="cls-7" cx="246.19" cy="78" rx="10.37" ry="16.62" transform="translate(-12.04 74.95) rotate(-16.9)"/><path class="cls-2" d="M181.51,45.16c7.56,5.18,33.29,3.59,33.29,3.59-2.55-6.52-7.07-10.72-10.67-9.63-1.27,.39-2.27,1.4-2.96,2.84-2.75-4.2-6.73-6.65-10.78-6.1-4.2,.58-7.44,4.24-8.88,9.3Z"/><path class="cls-7" d="M180.93,54.59c1.3,9.45,7.65,16.39,14.17,15.49,4.08-.56,7.26-4.05,8.76-8.9,2.55,4.14,5.9,6.49,8.69,5.64,3.96-1.2,5.28-8.38,2.95-16.03-.21-.71-.45-1.39-.71-2.05,0,0-25.73,1.59-33.29-3.59-.8,2.81-1.05,6.05-.58,9.43Z"/><ellipse class="cls-7" cx="196.3" cy="142.12" rx="9.78" ry="15.2" transform="translate(-23.16 39.32) rotate(-10.8)"/><ellipse class="cls-7" cx="173.26" cy="145.06" rx="7.84" ry="13.78" transform="translate(-24.12 35.05) rotate(-10.8)"/><path class="cls-29" d="M143.98,267.74c0,50.51,40.94,91.45,91.45,91.45s91.45-40.94,91.45-91.45c0-42.77-29.36-78.69-69.03-88.68,0,0-.02,0-.02,0-3.78-.96-7.66-1.67-11.61-2.12-1.21-.15-2.44-.28-3.67-.36-.03,0-.06,0-.09,0-1.68-.13-3.38-.21-5.09-.25h-.08c-.62,0-1.24-.02-1.86-.02-50.51,0-91.45,40.95-91.45,91.45Z"/><path class="cls-26" d="M264.55,244.17c-3.89-9.49-11.68-16.97-21.31-20.53-9.66-3.57-20.51-2.29-29.37,2.83-5.06,2.92-9.36,7.05-12.47,11.99-1.17,1.86,1.78,3.58,2.94,1.72,4.96-7.88,13.31-13.27,22.47-14.8s18.46,1.44,25.39,7.38c3.91,3.34,7.1,7.55,9.05,12.32,.35,.86,1.13,1.45,2.1,1.19,.81-.21,1.54-1.25,1.19-2.1h0Z"/><circle class="cls-18" cx="229.9" cy="271.52" r="32.57"/><circle class="cls-23" cx="209.54" cy="258.7" r="2.02"/><g><circle class="cls-9" cx="184.11" cy="281.1" r="1.6"/><circle class="cls-9" cx="174.85" cy="281.1" r="1.6"/><circle class="cls-9" cx="179.44" cy="287.47" r="1.6"/></g><g><circle class="cls-9" cx="292.56" cy="294.77" r="1.6"/><circle class="cls-9" cx="283.3" cy="294.77" r="1.6"/><circle class="cls-9" cx="287.88" cy="301.13" r="1.6"/></g><path class="cls-29" d="M157.66,303.85s-16.11,.92-17.26,11.16c0,0,9.7-4.39,20.19,4.09"/><g><path class="cls-33" d="M381.13,284.9l11.57,15.3"/><path class="cls-26" d="M379.67,285.76l11.57,15.3c.55,.73,1.46,1.11,2.32,.61,.72-.42,1.16-1.58,.61-2.32l-11.57-15.3c-.55-.73-1.46-1.11-2.32-.61-.72,.42-1.16,1.58-.61,2.32h0Z"/></g><path class="cls-29" d="M296.24,318.46s21.81,1.05,23.38,12.83c0,0-13.13-5.05-27.34,4.7"/><g><path class="cls-4" d="M346.74,286.72s-17.15,5.02-22.15-5.45c-5-10.47-9.03-50.4-3.73-56.28,5.3-5.88,22.54-4.02,22.54-4.02l3.34,65.74Z"/><ellipse class="cls-3" cx="346.73" cy="253.55" rx="14.95" ry="33.19" transform="translate(-4.65 6.48) rotate(-1.06)"/></g><path class="cls-1" d="M341.05,84.08c-3.16-2.41-6.67-4.93-10.84-4.77-3.59,.13-6.68,2.59-7.41,6.14-.2,.99,1.32,1.42,1.52,.42,.67-3.24,3.52-5.17,6.76-4.97,3.52,.21,6.47,2.5,9.17,4.55,.81,.62,1.6-.76,.8-1.36h0Z"/><path class="cls-1" d="M352.21,86.4c4.04-3.45,10.31-2.81,13.53,1.43,.61,.8,1.98,.01,1.36-.8-1.8-2.37-4.42-3.99-7.39-4.39-3.12-.41-6.25,.6-8.62,2.63-.77,.66,.35,1.77,1.12,1.12h0Z"/><path class="cls-1" d="M269.59,75.24c-3.16-1.57-6.86-1.15-9.64,1.01l1.35,.56c.11-4.41-1.99-8.74-5.63-11.26-.84-.58-1.63,.79-.8,1.36,3.18,2.21,4.95,6.07,4.85,9.9-.02,.76,.85,.95,1.35,.56,2.18-1.69,5.26-1.99,7.73-.76,.91,.45,1.71-.91,.8-1.36h0Z"/><path class="cls-1" d="M197.78,121.8c-2.37-1.47-5.22-2-7.96-1.52-2.37,.41-5.05,1.79-5.58,4.35-.21,.99,1.32,1.42,1.52,.42,.43-2.09,2.79-3,4.67-3.28,2.27-.33,4.6,.19,6.54,1.4,.87,.54,1.66-.83,.8-1.36h0Z"/><path class="cls-1" d="M179.69,128.51c-1.33-2.6-4.35-3.68-7.13-3.28-3.27,.47-5.88,2.64-8.2,4.83-.74,.7,.38,1.82,1.12,1.12,1.96-1.86,4.1-3.71,6.81-4.3,2.31-.51,4.91,.22,6.04,2.43,.46,.9,1.83,.11,1.36-.8h0Z"/><path class="cls-27" d="M350.08,111.64c3.07,0,3.08-4.78,0-4.78s-3.08,4.78,0,4.78h0Z"/><path class="cls-27" d="M337.93,114.34c3.07,0,3.08-4.78,0-4.78s-3.08,4.78,0,4.78h0Z"/><path class="cls-27" d="M264.46,94.72c3.07,0,3.08-4.78,0-4.78s-3.08,4.78,0,4.78h0Z"/><path class="cls-27" d="M249.17,87.24c3.07,0,3.08-4.78,0-4.78s-3.08,4.78,0,4.78h0Z"/><path class="cls-27" d="M207.6,53.16c3.07,0,3.08-4.78,0-4.78s-3.08,4.78,0,4.78h0Z"/><path class="cls-27" d="M190.72,52.43c3.07,0,3.08-4.78,0-4.78s-3.08,4.78,0,4.78h0Z"/><path class="cls-28" d="M169.13,152.31c3.07,0,3.08-4.78,0-4.78s-3.08,4.78,0,4.78h0Z"/><path class="cls-28" d="M192.07,148.81c3.07,0,3.08-4.78,0-4.78s-3.08,4.78,0,4.78h0Z"/><path class="cls-10" d="M164.2,210.75c.16-.16,.33-.32,.5-.48"/><path class="cls-10" d="M164.2,210.75c.32,.26,.5,.43,.5,.43"/><g><path class="cls-13" d="M139.13,243.96s12.69-26.1,19.56-36.53c-1.14-.33-2.36-.61-3.63-.78-6.05-.82-13.03,.72-16.31,10.39-3.41,10.11-1.84,19.94,.38,26.92Z"/><path class="cls-21" d="M139.57,244.38c.7,2,1.45,3.76,2.14,5.22,1.41,2.98,2.56,4.71,2.56,4.71,0,0,6.03-29.57,20.36-43.83-.88-.72-2.83-2.12-5.3-2.86-.46-.14-.95-.27-1.44-.39-6.51,10.66-18.32,37.16-18.32,37.16Z"/></g><path class="cls-24" d="M226.92,182.59c.78,.02,1.2-.9,.67-1.47-3.04-3.22-9.61-10.61-8.73-13.28,1.15-3.46,14.44,.05,15.61-2.54,.78-1.72,2.66,.65,3.83,2.43,.41,.62,1.35,.47,1.56-.24l.17-.58c.1-.33,.38-.57,.71-.62,2.07-.31,9.15-1.04,8.54,3.54-.71,5.35,3.11,4.11,4.25,.65,.94-2.83,6.29-2.33,8.21-2.05,.4,.06,.71,.38,.74,.79l.12,1.36c.07,.74,.96,1.06,1.48,.55l1.55-1.52c1.17-1.15,2.86-1.61,4.45-1.2,3.86,.98,10.84,2.35,13.62,4.75,.37,.32-9.15,8.69-12.85,12.17-.55,.52-.22,1.44,.53,1.5l11.08,.88-1.91,1.16c-.48,.29-.56,.94-.19,1.35l7.32,7.81c.5,.53,.17,1.4-.55,1.47l-1.17,.11c-.57,.05-.94,.64-.74,1.18l4.14,11.11c.21,.58-.22,1.19-.83,1.18l-1.18-.02c-.35,0-.67,.2-.81,.52l-.8,1.79c-.22,.49-.82,.67-1.27,.38l-2.12-1.36c-.36-.23-.83-.17-1.12,.14l-2.3,2.5c-.21,.23-.52,.33-.83,.26-2.05-.46-10.08-2.43-14.36-5.98-.58-.48-1.45-.01-1.42,.74l.46,8.92c.04,.8-.92,1.23-1.49,.67l-.04-.04c-.43-.42-1.14-.3-1.4,.24l-7.82,16.13c-.3,.61-1.14,.67-1.52,.1l-.61-.92c-.33-.5-1.05-.53-1.42-.06l-5.5,6.98c-.46,.59-1.39,.41-1.6-.31l-1.96-6.68c-.15-.52-.73-.78-1.22-.54l-1.94,.93c-.49,.24-1.08-.03-1.22-.56l-4.65-17.22c-.13-.49-.65-.76-1.12-.6l-.56,.19c-.69,.23-1.35-.44-1.1-1.12l3.72-10.33c.24-.67-.37-1.33-1.05-1.14l-15.74,4.34c-.35,.1-.73-.04-.95-.34l-1.68-2.36c-.16-.23-.43-.37-.71-.37l-3.54-.03c-.57,0-.99-.55-.84-1.11l.17-.6c.15-.54-.24-1.07-.79-1.11l-1.87-.11c-.61-.03-1-.67-.75-1.23,1.27-2.76,4.53-9.57,6.3-10.59,1.24-.72,.49-1.38-.43-1.83-.62-.3-.69-1.15-.11-1.52l7.58-4.92c.4-.26,.52-.8,.26-1.2h0c-.38-.59,.06-1.37,.76-1.34l8.93,.27Z"/><path class="cls-22" d="M164.72,374.96s-5.86,2.27-3.16,8.6c2.7,6.33-6.56,8.09-7.89,3.44-1.33-4.65,9.77-13.45,11.06-12.04Z"/><circle class="cls-22" cx="170.63" cy="367.83" r="3.41"/><path class="cls-22" d="M199.51,420.18s-6.26,.57-5.41,7.4c.85,6.83-8.54,5.98-8.54,1.14s13.09-10.24,13.94-8.54Z"/><circle class="cls-12" cx="299.06" cy="145.9" r="40.36"/><path class="cls-7" d="M307.8,145.19c4.56,2.27,10.82-1.06,13.96-7.43,.6-1.22,1.05-2.47,1.34-3.7l-15.31-8.29c-.97,1.09-1.84,2.37-2.55,3.8-3.14,6.37-2,13.35,2.56,15.61Z"/><polyline class="cls-2" points="302.53 122.93 307.79 125.78 323.1 134.07 329.85 137.72"/><path class="cls-7" d="M279.09,132.92c4.47,2.44,10.85-.64,14.24-6.88,.65-1.2,1.15-2.42,1.48-3.64l-14.98-8.88c-1.02,1.05-1.94,2.3-2.7,3.7-3.39,6.24-2.52,13.26,1.95,15.69Z"/><polyline class="cls-2" points="278.12 110.98 282.32 113.45 294.54 120.63 299.92 123.79"/><path class="cls-27" d="M313.63,133.81c3.07,0,3.08-4.78,0-4.78s-3.08,4.78,0,4.78h0Z"/><path class="cls-27" d="M286.3,121.48c3.07,0,3.08-4.78,0-4.78s-3.08,4.78,0,4.78h0Z"/></g></g></svg>